<?xml version="1.0" standalone="no"?>
<!DOCTYPE svg PUBLIC "-//W3C//DTD SVG 20010904//EN"
 "http://www.w3.org/TR/2001/REC-SVG-20010904/DTD/svg10.dtd">
<svg version="1.0" xmlns="http://www.w3.org/2000/svg"
 width="1531.000000pt" height="1936.000000pt" viewBox="0 0 1531.000000 1936.000000"
 preserveAspectRatio="xMidYMid meet">

<g transform="translate(0.000000,1936.000000) scale(0.100000,-0.100000)"
fill="#000000" stroke="none">
<path d="M8206 18280 c-497 -527 -766 -1239 -743 -1965 7 -202 17 -295 52
-470 100 -498 341 -972 675 -1328 l83 -88 43 42 43 42 -81 86 c-190 203 -365
472 -477 733 -206 482 -267 996 -180 1510 84 493 316 963 664 1344 l74 81 -43
42 -43 42 -67 -71z"/>
<path d="M12743 18309 l-42 -43 63 -67 c367 -388 606 -892 693 -1459 24 -161
24 -539 0 -700 -42 -268 -93 -458 -185 -678 -121 -290 -308 -577 -508 -782
l-64 -66 43 -42 44 -43 83 88 c98 104 234 283 315 414 205 331 332 684 392
1084 27 183 24 591 -5 780 -88 567 -343 1093 -720 1486 l-67 70 -42 -42z"/>
<path d="M8740 17768 c-183 -205 -302 -397 -394 -631 -211 -536 -186 -1130 70
-1646 91 -185 241 -399 353 -506 l31 -29 42 41 42 42 -48 53 c-248 279 -396
569 -473 928 -25 116 -27 142 -28 370 0 196 4 263 18 335 75 381 223 676 489
978 l42 47 -39 40 c-22 22 -42 40 -45 40 -3 0 -30 -28 -60 -62z"/>
<path d="M12215 17790 l-38 -39 47 -53 c307 -345 476 -740 505 -1178 34 -521
-132 -1001 -484 -1403 l-68 -78 41 -42 41 -41 27 24 c52 48 178 206 241 302
81 123 181 331 228 473 193 586 107 1237 -230 1750 -72 109 -248 325 -265 325
-3 0 -23 -18 -45 -40z"/>
<path d="M9266 17233 c-149 -177 -245 -370 -293 -593 -25 -119 -25 -391 0
-510 48 -223 144 -416 293 -593 l58 -68 42 42 42 42 -74 91 c-363 448 -349
1078 33 1524 l42 49 -43 42 -42 42 -58 -68z"/>
<path d="M11694 17258 l-42 -43 63 -74 c116 -137 199 -302 246 -492 19 -79 23
-121 23 -259 1 -173 -6 -221 -51 -365 -47 -148 -129 -293 -240 -423 l-42 -49
42 -41 43 -42 49 57 c146 168 239 346 292 559 25 100 27 125 28 299 0 175 -2
199 -28 299 -55 217 -155 408 -299 569 l-43 48 -41 -43z"/>
<path d="M9809 16728 c-91 -124 -133 -283 -111 -424 14 -86 70 -214 121 -274
l30 -35 42 41 41 41 -35 52 c-59 85 -80 153 -80 256 0 103 21 171 80 256 l35
51 -38 39 c-21 22 -42 39 -46 39 -4 0 -22 -19 -39 -42z"/>
<path d="M11166 16731 l-38 -39 35 -51 c59 -85 80 -153 80 -256 0 -103 -21
-171 -80 -256 l-35 -52 42 -41 41 -41 30 35 c17 19 48 71 70 115 75 153 77
320 4 473 -34 71 -89 152 -104 152 -4 0 -24 -17 -45 -39z"/>
<path d="M10541 16523 c-124 -65 -93 -242 45 -259 73 -9 141 46 150 122 13
104 -103 186 -195 137z"/>
<path d="M10297 14953 c-4 -3 -7 -1533 -7 -3400 l0 -3393 -225 0 -225 0 0
1903 0 1902 -88 88 -88 87 -259 -2 -260 -3 -3 -1987 -2 -1988 -3665 0 -3665 0
0 653 c0 621 -1 655 -18 670 -17 16 -93 17 -884 17 -858 0 -865 0 -883 -20
-18 -20 -19 -141 -23 -3727 l-5 -3705 1024 -1024 1024 -1024 6515 0 c5055 0
6519 3 6528 12 9 9 12 851 12 3728 l0 3716 -295 294 c-265 265 -299 295 -331
298 -24 2 -43 -3 -55 -14 -18 -16 -19 -34 -19 -281 l0 -263 -338 0 -338 0 -72
73 -73 73 1 696 0 695 -72 70 c-40 39 -158 150 -263 247 -184 172 -191 177
-225 172 -19 -3 -400 -6 -847 -6 -724 0 -813 -2 -827 -16 -14 -14 -16 -89 -16
-675 l0 -659 -195 0 -195 0 0 3318 0 3317 -83 83 -82 82 -236 0 c-130 0 -239
-3 -242 -7z m526 -81 c31 -32 57 -61 57 -65 0 -4 -93 -7 -206 -7 l-206 0 -67
65 -66 65 215 0 216 0 57 -58z m-383 -3706 l0 -3620 -60 59 -60 59 0 3620 0
3620 60 -59 60 -59 0 -3620z m470 -16 l0 -3630 -220 0 -220 0 0 3623 c0 1993
3 3627 7 3630 3 4 102 7 220 7 l213 0 0 -3630z m-1185 890 l69 -70 -235 0
-235 0 -69 70 -69 70 235 0 235 0 69 -70z m-415 -2297 c0 -1212 -3 -2203 -7
-2203 -4 0 -36 28 -70 62 l-63 62 0 2210 0 2210 70 -69 70 -69 0 -2203z m500
-18 l0 -2215 -235 0 -235 0 0 2215 0 2215 235 0 235 0 0 -2215z m2410 -945 l0
-620 -390 0 -390 0 0 620 0 620 390 0 390 0 0 -620z m740 0 l0 -620 -315 0
-315 0 0 620 0 620 315 0 315 0 0 -620z m-12180 -5 l0 -615 -75 0 -75 0 0 414
0 413 -102 99 c-57 54 -150 145 -208 201 l-105 103 283 0 282 0 0 -615z m920
0 l0 -615 -405 0 -405 0 0 615 0 615 405 0 405 0 0 -615z m11609 360 l160
-150 1 -620 0 -620 -200 200 -200 200 0 603 0 604 39 -34 c22 -18 111 -100
200 -183z m-12926 -62 l137 -133 0 -390 0 -390 -200 0 -200 0 0 582 0 581 63
-59 c34 -32 124 -118 200 -191z m14332 -1383 l200 -200 -203 0 -202 0 0 200
c0 110 1 200 3 200 1 0 92 -90 202 -200z m-565 -465 c0 -85 -1 -155 -3 -155
-1 0 -72 70 -157 155 l-155 155 158 0 157 0 0 -155z m250 -127 l0 -282 -70 69
-70 69 0 213 0 213 70 0 70 0 0 -282z m590 -295 l0 -578 -240 240 -240 240 0
337 0 338 240 0 240 0 0 -577z m-8150 -4378 l0 -2105 -1000 0 -1000 0 0 2105
0 2105 1000 0 1000 0 0 -2105z"/>
</g>
</svg>
